{"title":"OUTRO_PAIS.mkv","uid":12586677,"size":3253721207,"categoryP":"video","categoryS":"movies","magnet":"?xt=urn:btih:ca083e7c636d6b2930698a6e937653542d1a314c&amp;dn=OUTRO_PAIS.mkv&amp;tr=udp%3A%2F%2Ftracker.leechers-paradise.org%3A6969&amp;tr=udp%3A%2F%2Fzer0day.ch%3A1337&amp;tr=udp%3A%2F%2Fopen.demonii.com%3A1337&amp;tr=udp%3A%2F%2Ftracker.coppersurfer.tk%3A6969&amp;tr=udp%3A%2F%2Fexodus.desync.com%3A6969","seeders":0,"leechers":0,"uploader":"dcazevedo","files":1,"time":1445032827,"description":"Outro País: Memórias, Sonhos, Ilusões... Portugal 1974/1975 (2000)\r\n\r\nIMDB \nhttp://www.imdb.com/title/tt0257404/?ref_=fn_al_tt_1\r\n\r\nFormat                      : Matroska\r\nFormat version              : Version 2\r\nFile size                   : 3.03 GiB\r\nDuration                    : 1h 10mn\r\nOverall bit rate mode       : Variable\r\nOverall bit rate            : 6 190 Kbps\r\nEncoded date                : UTC 2015-10-01 19:27:13\r\nWriting application         : MakeMKV v1.9.6 win(x64-release)\r\nWriting library             : libmakemkv v1.9.6 (1.3.0/1.4.1) win(x64-release)\r\n\r\nVideo\r\nID                          : 1\r\nFormat                      : MPEG Video\r\nFormat version              : Version 2\r\nFormat profile              :   \r\nFormat settings, BVOP       : Yes\r\nFormat settings, Matrix     : Custom\r\nFormat settings, GOP        : M=3, N=12\r\nFormat settings, picture st : Frame\r\nCodec ID                    : V_MPEG2\r\nCodec ID/Info               : MPEG 1 or 2 Video\r\nDuration                    : 1h 10mn\r\nBit rate mode               : Variable\r\nBit rate                    : 5 875 Kbps\r\nMaximum bit rate            : 8 500 Kbps\r\nWidth                       : 720 pixels\r\nHeight                      : 576 pixels\r\nDisplay aspect ratio        : 4:3\r\nFrame rate mode             : Constant\r\nFrame rate                  : 25.000 fps\r\nStandard                    : PAL\r\nColor space                 : YUV\r\nChroma subsampling          : 4:2:0\r\nBit depth                   : 8 bits\r\nScan type                   : Interlaced\r\nScan order                  : Top Field First\r\nCompression mode            : Lossy\r\nBits/(Pixel*Frame)          : 0.567\r\nTime code of first frame    : 00:01:59:20\r\nTime code source            : Group of pictures header\r\nGOP, Open/Closed            : Closed\r\nStream size                 : 2.88 GiB (95%)\r\nLanguage                    : English\r\nDefault                     : No\r\nForced                      : No\r\n\r\nAudio\r\nID                          : 2\r\nFormat                      : AC-3\r\nFormat/Info                 : Audio Coding 3\r\nMode extension              : CM (complete main)\r\nFormat settings, Endianness : Big\r\nCodec ID                    : A_AC3\r\nDuration                    : 1h 10mn\r\nBit rate mode               : Constant\r\nBit rate                    : 192 Kbps\r\nChannel(s)                  : 2 channels\r\nChannel positions           : Front: L R\r\nSampling rate               : 48.0 KHz\r\nCompression mode            : Lossy\r\nStream size                 : 96.3 MiB (3%)\r\nTitle                       : Stereo\r\nLanguage                    : English\r\nDefault                     : Yes\r\nForced                      : No\r\n\r\nText\r\nID                          : 3\r\nFormat                      : VobSub\r\nCodec ID                    : S_VOBSUB\r\nCodec ID/Info               : Picture based subtitle format used on DVDs\r\nLanguage                    : Portuguese\r\nDefault                     : Yes\r\nForced                      : No","torrent":{"xt":"urn:btih:ca083e7c636d6b2930698a6e937653542d1a314c","amp;dn":"OUTRO_PAIS.mkv","amp;tr":["udp%3A%2F%2Ftracker.leechers-paradise.org%3A6969","udp%3A%2F%2Fzer0day.ch%3A1337","udp%3A%2F%2Fopen.demonii.com%3A1337","udp%3A%2F%2Ftracker.coppersurfer.tk%3A6969","udp%3A%2F%2Fexodus.desync.com%3A6969"],"infoHash":"ca083e7c636d6b2930698a6e937653542d1a314c","infoHashBuffer":{"type":"Buffer","data":[202,8,62,124,99,109,107,41,48,105,138,110,147,118,83,84,45,26,49,76]},"announce":[],"urlList":[]}}